# xmcd
#
# Track frame offsets:
#	182
#	14332
#	28037
#	40755
#	55080
#	67420
#	78650
#	92812
#	107300
#	121777
#	133845
#	145897
#	161440
#	174565
#	187137
#	202480
#	213050
#	225022
#	238335
#	252520
#
# Disc length: 3560 seconds
#
# Revision: 0
# Processed by: cddbd v1.5.2PL0 Copyright (c) Steve Scherf et al.
# Submitted via: audiograbber 1.83.01
#
DISCID=1e0de614
DTITLE=Various Artist - The Birth of The Blues
DYEAR=1993
DGENRE=Blues
TTITLE0=Bessie Smith - Down Hearted Blues
TTITLE1=Blind Lemon Jefferson - Match Box Blues
TTITLE2=Sylvester Weaver and Walter Beasley - Bottleneck Blues
TTITLE3=Blind Willie Johnson - God Don't Never Change
TTITLE4=Blind Willie Johnson - Dark Was The Night
TTITLE5=Bo Carter - Pigmeat Is What I Crave
TTITLE6=Tampa Red and Georgia Tom - You Can't Get That Stuff No More
TTITLE7=Charlie Patton - Revenue Man Blues
TTITLE8=Charlie Patton - High Sheriff Blues
TTITLE9=Blind Boy Fuller - Homesick and Lonesome Blues
TTITLE10=Leroy Carr - Stormy Night Blues
TTITLE11=Leadbelly - Packin' Drunk Blues
TTITLE12=Leadbelly - Fort Worth And Dallas Blues
TTITLE13=Peetie Wheatstraw - Sweet Home Blues
TTITLE14=Robert Johnson - I Belive I'll Dust My Broom
TTITLE15=Robert Johnson - Terra Plane Blues
TTITLE16=Big Bill Broonzy - Spreadin' Snakes Blues
TTITLE17=Memphis Minnie - Nothing In Ramblin'
TTITLE18=Bukka White - Bukka's Jitterbug Swing
TTITLE19=Bukka White - Special Srteam Line
EXTD=
EXTT0=
EXTT1=
EXTT2=
EXTT3=
EXTT4=
EXTT5=
EXTT6=
EXTT7=
EXTT8=
EXTT9=
EXTT10=
EXTT11=
EXTT12=
EXTT13=
EXTT14=
EXTT15=
EXTT16=
EXTT17=
EXTT18=
EXTT19=
PLAYORDER=
